<?xml version="1.0" encoding="UTF-8" standalone="no"?>
<!-- Created with Inkscape (http://www.inkscape.org/) -->

<svg
   xmlns:dc="http://purl.org/dc/elements/1.1/"
   xmlns:cc="http://creativecommons.org/ns#"
   xmlns:rdf="http://www.w3.org/1999/02/22-rdf-syntax-ns#"
   xmlns:svg="http://www.w3.org/2000/svg"
   xmlns="http://www.w3.org/2000/svg"
   xmlns:sodipodi="http://sodipodi.sourceforge.net/DTD/sodipodi-0.dtd"
   xmlns:inkscape="http://www.inkscape.org/namespaces/inkscape"
   width="90.278397mm"
   height="90.279228mm"
   viewBox="0 0 90.278397 90.279228"
   version="1.1"
   id="svg17575"
   inkscape:version="0.92.2 (5c3e80d, 2017-08-06)"
   sodipodi:docname="VektrIcon.svg">
  <defs
     id="defs17569">
    <clipPath
       id="clipPath21338-3-7"
       clipPathUnits="userSpaceOnUse">
      <path
         inkscape:connector-curvature="0"
         id="path21336-4-7"
         d="m 7115.764,7264.878 c -36.031,-47.122 -27.039,-114.532 20.083,-150.564 v 0 c 47.121,-36.03 114.532,-27.039 150.563,20.083 v 0 c 36.03,47.122 27.035,114.533 -20.086,150.563 v 0 c -19.474,14.891 -42.404,22.092 -65.16,22.09 v 0 c -32.309,0 -64.26,-14.524 -85.4,-42.172" />
    </clipPath>
    <clipPath
       id="clipPath21316-4-8"
       clipPathUnits="userSpaceOnUse">
      <path
         inkscape:connector-curvature="0"
         id="path21314-6-3"
         d="m 7183.518,7326.369 c -70.038,-9.346 -119.242,-73.695 -109.903,-143.733 v 0 c 9.345,-70.042 73.695,-119.245 143.733,-109.9 v 0 c 70.041,9.346 119.241,73.692 109.899,143.73 v 0 c -8.577,64.305 -63.511,111.045 -126.653,111.041 v 0 c -5.633,-10e-4 -11.34,-0.373 -17.076,-1.138" />
    </clipPath>
  </defs>
  <sodipodi:namedview
     id="base"
     pagecolor="#ffffff"
     bordercolor="#666666"
     borderopacity="1.0"
     inkscape:pageopacity="0.0"
     inkscape:pageshadow="2"
     inkscape:zoom="1.1872"
     inkscape:cx="343.97438"
     inkscape:cy="87.897602"
     inkscape:document-units="mm"
     inkscape:current-layer="layer1"
     showgrid="false"
     inkscape:window-width="1920"
     inkscape:window-height="1017"
     inkscape:window-x="-8"
     inkscape:window-y="-8"
     inkscape:window-maximized="1" />
  <metadata
     id="metadata17572">
    <rdf:RDF>
      <cc:Work
         rdf:about="">
        <dc:format>image/svg+xml</dc:format>
        <dc:type
           rdf:resource="http://purl.org/dc/dcmitype/StillImage" />
        <dc:title></dc:title>
      </cc:Work>
    </rdf:RDF>
  </metadata>
  <g
     inkscape:label="Layer 1"
     inkscape:groupmode="layer"
     id="layer1"
     transform="translate(-0.08237323,-0.16748759)">
    <g
       id="g17631"
       transform="translate(-0.89145328,-2.2286332)">
      <g
         style="display:inline;fill:#2e689e;fill-opacity:1"
         id="g17529"
         transform="matrix(0.35277777,0,0,-0.35277777,-2494.0391,2587.3777)">
        <g
           style="fill:#2e689e;fill-opacity:1"
           id="g17527"
           clip-path="url(#clipPath21316-4-8)">
          <g
             style="fill:#2e689e;fill-opacity:1"
             id="g17525">
            <g
               style="fill:#2e689e;fill-opacity:1"
               id="g17523">
              <path
                 inkscape:connector-curvature="0"
                 d="m 7183.518,7326.369 c -70.038,-9.346 -119.242,-73.695 -109.903,-143.733 v 0 c 9.345,-70.042 73.695,-119.245 143.733,-109.9 v 0 c 70.041,9.346 119.241,73.692 109.899,143.73 v 0 c -8.577,64.305 -63.511,111.045 -126.653,111.041 v 0 c -5.633,-10e-4 -11.34,-0.373 -17.076,-1.138"
                 style="fill:#2e689e;fill-opacity:1;stroke:none"
                 id="path17521" />
            </g>
          </g>
        </g>
      </g>
      <g
         style="display:inline;fill:#2e689e;fill-opacity:1"
         id="g17539"
         transform="matrix(0.35277777,0,0,-0.35277777,-2494.0391,2587.3777)">
        <g
           style="fill:#2e689e;fill-opacity:1"
           id="g17537"
           clip-path="url(#clipPath21338-3-7)">
          <g
             style="fill:#2e689e;fill-opacity:1"
             id="g17535">
            <g
               style="fill:#2e689e;fill-opacity:1"
               id="g17533">
              <path
                 inkscape:connector-curvature="0"
                 d="m 7115.764,7264.878 c -36.031,-47.122 -27.039,-114.532 20.083,-150.564 v 0 c 47.121,-36.03 114.532,-27.039 150.563,20.083 v 0 c 36.03,47.122 27.035,114.533 -20.086,150.563 v 0 c -19.474,14.891 -42.404,22.092 -65.16,22.09 v 0 c -32.309,0 -64.26,-14.524 -85.4,-42.172"
                 style="fill:#2e689e;fill-opacity:1;stroke:none"
                 id="path17531" />
            </g>
          </g>
        </g>
      </g>
      <g
         transform="matrix(0.35277777,0,0,-0.35277777,69.358953,17.405045)"
         id="g21362">
        <path
           id="path21364"
           style="fill:none;stroke:#ffffff;stroke-width:10;stroke-linecap:round;stroke-linejoin:miter;stroke-miterlimit:4;stroke-dasharray:none;stroke-opacity:1"
           d="m 0,0 c 47.122,-36.03 56.116,-103.441 20.086,-150.564 -36.03,-47.123 -103.441,-56.114 -150.564,-20.083 -47.122,36.03 -56.114,103.44 -20.083,150.564 C -114.531,27.039 -47.123,36.03 0,0 Z"
           inkscape:connector-curvature="0" />
      </g>
      <g
         transform="matrix(0.35277777,0,0,-0.35277777,16.569073,46.297156)"
         id="g21398">
        <path
           id="path21400"
           style="fill:#ffffff;fill-opacity:1;fill-rule:nonzero;stroke:none"
           d="M 0,0 130.482,67.399 108.476,-82.08 69.746,-12.04"
           inkscape:connector-curvature="0" />
      </g>
    </g>
  </g>
</svg>
